<svg width="594" height="594" viewBox="0 0 594 594" fill="none" xmlns="http://www.w3.org/2000/svg">
<g filter="url(#filter0_d_878_101325)">
<circle cx="297" cy="289" r="272" fill="white"/>
<circle cx="297" cy="289" r="272.5" stroke="#F5F5F5"/>
</g>
<rect x="83.9893" y="73.5994" width="430.652" height="431.106" rx="189" fill="url(#paint0_linear_878_101325)"/>
<g opacity="0.2" filter="url(#filter1_f_878_101325)">
<path d="M502.889 260.314C495.669 238.982 480.225 222.135 459.396 212.873C443.827 205.951 427.377 204.527 410.503 208.639C406.391 209.642 400.396 212.067 395.297 214.306C388.659 217.221 381.876 219.844 374.757 221.215C363.367 223.408 346.565 225.677 343.859 220.656C335.631 205.382 334.416 201.711 318.847 194.789C298.019 185.527 314.906 174.915 294.202 183.83C273.744 192.643 265.082 197.815 255.214 219.948C245.059 242.729 235.532 252.306 243.977 282.414C251.533 309.346 258.185 327.377 275.048 362.585C280.806 374.609 281.507 378.362 288.176 392.753C289.936 396.56 279.901 420.04 283.74 421.747C287.578 423.454 298.838 425.142 312.158 422.586C327.954 419.556 334.9 417.824 347.705 414.049C385.182 403.008 417.549 393.473 442.647 381.057C470.701 367.18 488.496 350.107 498.653 327.324C508.519 305.193 510.023 281.395 502.889 260.314Z" fill="url(#paint1_linear_878_101325)" style="mix-blend-mode:multiply"/>
</g>
<g opacity="0.3" filter="url(#filter2_f_878_101325)">
<path d="M471.955 227.221C459.782 208.267 440.715 195.652 418.262 191.698C401.478 188.742 385.172 191.335 369.795 199.402C366.05 201.368 360.825 205.165 356.421 208.569C350.681 213.004 344.731 217.192 338.15 220.244C327.63 225.124 311.883 231.38 308.042 227.163C296.358 214.331 294.291 211.063 277.507 208.107C255.053 204.153 268.869 189.776 250.939 203.429C233.223 216.922 226.071 224.034 221.859 247.893C217.523 272.451 210.599 284.045 226.087 311.218C239.942 335.525 250.765 351.414 275.656 381.502C284.155 391.777 285.744 395.249 295.702 407.602C298.332 410.87 294.282 436.077 298.421 436.806C302.558 437.534 313.892 436.453 326.198 430.754C340.791 423.997 347.111 420.639 358.621 413.883C392.31 394.115 421.406 377.043 442.751 358.932C466.61 338.69 479.741 317.824 484.077 293.264C488.289 269.407 483.984 245.952 471.955 227.221Z" fill="url(#paint2_linear_878_101325)" style="mix-blend-mode:multiply"/>
</g>
<g opacity="0.4" filter="url(#filter3_f_878_101325)">
<path d="M435.238 196.002C419.955 179.448 398.984 170.33 376.184 170.33C359.142 170.33 343.534 175.711 329.794 186.322C326.449 188.907 321.965 193.55 318.221 197.664C313.336 203.031 308.202 208.19 302.248 212.34C292.735 218.969 278.32 227.858 273.806 224.371C260.068 213.76 257.463 210.9 240.421 210.9C217.621 210.9 228.727 194.346 213.444 210.9C198.343 227.261 192.536 235.505 192.536 259.732C192.536 284.669 187.733 297.288 207.711 321.362C225.582 342.897 239.003 356.667 268.747 381.982C278.904 390.627 281.073 393.771 293.027 404.209C296.185 406.971 296.58 432.498 300.783 432.498C304.984 432.498 315.958 429.467 327.086 421.721C340.282 412.536 345.922 408.132 356.083 399.483C385.823 374.173 411.508 352.314 429.379 330.777C449.357 306.705 458.66 283.879 458.66 258.94C458.66 234.715 450.341 212.363 435.238 196.002Z" fill="url(#paint3_linear_878_101325)" style="mix-blend-mode:multiply"/>
</g>
<path d="M425.796 196.002C410.512 179.448 389.542 170.33 366.742 170.33C349.699 170.33 334.092 175.711 320.351 186.322C309.181 194.952 294.012 194.95 282.84 186.322C269.102 175.711 253.495 170.33 236.452 170.33C213.652 170.33 192.679 179.448 177.396 196.002C162.295 212.363 153.977 234.715 153.977 258.942C153.977 283.879 163.282 306.705 183.259 330.779C201.131 352.314 226.816 374.175 256.56 399.489C266.717 408.134 278.229 417.934 290.183 428.371C293.341 431.134 297.394 432.655 301.597 432.655C305.798 432.655 309.852 431.134 313.006 428.376C324.96 417.936 336.479 408.132 346.64 399.483C376.38 374.173 402.066 352.314 419.937 330.777C439.914 306.705 449.217 283.879 449.217 258.94C449.217 234.715 440.899 212.363 425.796 196.002Z" fill="url(#paint4_radial_878_101325)"/>
<mask id="mask0_878_101325" style="mask-type:luminance" maskUnits="userSpaceOnUse" x="153" y="170" width="297" height="263">
<path d="M425.796 196.002C410.512 179.448 389.542 170.33 366.742 170.33C349.699 170.33 334.092 175.711 320.351 186.322C309.181 194.952 294.012 194.95 282.84 186.322C269.102 175.711 253.495 170.33 236.452 170.33C213.652 170.33 192.679 179.448 177.396 196.002C162.295 212.363 153.977 234.715 153.977 258.942C153.977 283.879 163.282 306.705 183.259 330.779C201.131 352.314 226.816 374.175 256.56 399.489C266.717 408.134 278.229 417.934 290.183 428.371C293.341 431.134 297.394 432.655 301.597 432.655C305.798 432.655 309.852 431.134 313.006 428.376C324.96 417.936 336.479 408.132 346.64 399.483C376.38 374.173 402.066 352.314 419.937 330.777C439.914 306.705 449.217 283.879 449.217 258.94C449.217 234.715 440.899 212.363 425.796 196.002Z" fill="white"/>
</mask>
<g mask="url(#mask0_878_101325)">
<path d="M425.796 196.002C410.512 179.448 389.542 170.33 366.742 170.33C349.699 170.33 334.092 175.711 320.351 186.322C309.181 194.952 294.012 194.95 282.84 186.322C269.102 175.711 253.495 170.33 236.452 170.33C213.652 170.33 192.679 179.448 177.396 196.002C162.295 212.363 153.977 234.715 153.977 258.942C153.977 283.879 163.282 306.705 183.259 330.779C201.131 352.314 226.816 374.175 256.56 399.489C266.717 408.134 278.229 417.934 290.183 428.371C293.341 431.134 297.394 432.655 301.597 432.655C305.798 432.655 309.852 431.134 313.006 428.376C324.96 417.936 336.479 408.132 346.64 399.483C376.38 374.173 402.066 352.314 419.937 330.777C439.914 306.705 449.217 283.879 449.217 258.94C449.217 234.715 440.899 212.363 425.796 196.002Z" fill="url(#paint5_radial_878_101325)"/>
<mask id="mask1_878_101325" style="mask-type:luminance" maskUnits="userSpaceOnUse" x="153" y="170" width="297" height="263">
<path d="M425.796 196.002C410.512 179.448 389.542 170.33 366.742 170.33C349.699 170.33 334.092 175.711 320.351 186.322C309.181 194.952 294.012 194.95 282.84 186.322C269.102 175.711 253.495 170.33 236.452 170.33C213.652 170.33 192.679 179.448 177.396 196.002C162.295 212.363 153.977 234.715 153.977 258.942C153.977 283.879 163.282 306.705 183.259 330.779C201.131 352.314 226.816 374.175 256.56 399.489C266.717 408.134 278.229 417.934 290.183 428.371C293.341 431.134 297.394 432.655 301.597 432.655C305.798 432.655 309.852 431.134 313.006 428.376C324.96 417.936 336.479 408.132 346.64 399.483C376.38 374.173 402.066 352.314 419.937 330.777C439.914 306.705 449.217 283.879 449.217 258.94C449.217 234.715 440.899 212.363 425.796 196.002Z" fill="white"/>
</mask>
<g mask="url(#mask1_878_101325)">
<g filter="url(#filter4_f_878_101325)">
<path d="M265.712 182.274C265.712 182.274 206.024 180.254 190.512 239.189C175 298.125 279.538 419.027 279.538 419.027L154.093 361.102L127.453 235.822L167.919 179.58L239.409 159.037L287.631 170.487L265.712 182.274Z" fill="#FFE0E0" style="mix-blend-mode:overlay"/>
</g>
<g opacity="0.6" filter="url(#filter5_f_878_101325)">
<path fill-rule="evenodd" clip-rule="evenodd" d="M282.236 397.136L299.434 408.587C299.434 408.587 369.912 348.641 395.204 284.991C420.495 221.34 407.681 177.223 407.681 177.223L496.706 253.334L471.752 388.38L337.202 490.086L255.258 433.171L282.236 397.136Z" fill="#EB5C62" style="mix-blend-mode:multiply"/>
</g>
</g>
<g opacity="0.7" filter="url(#filter6_f_878_101325)">
<path fill-rule="evenodd" clip-rule="evenodd" d="M285.271 419.027C285.271 419.027 295.05 426.099 306.853 423.742C318.655 421.384 403.634 343.253 426.565 301.493C449.496 259.733 436.682 210.9 436.682 210.9L468.38 242.557L456.24 379.624L375.982 436.539L310.899 447.316L275.154 436.539L285.271 419.027Z" fill="#FFE0E0" style="mix-blend-mode:overlay"/>
</g>
<g opacity="0.8" filter="url(#filter7_f_878_101325)">
<path fill-rule="evenodd" clip-rule="evenodd" d="M320.511 186.199L323.237 207.802L323.253 207.925L323.213 208.042L322.702 207.869C323.213 208.042 323.213 208.042 323.213 208.043L323.213 208.044L323.211 208.048L323.206 208.064L323.185 208.125C323.174 208.157 323.159 208.199 323.142 208.248C323.13 208.282 323.117 208.32 323.102 208.362C323.029 208.569 322.921 208.872 322.78 209.257C322.497 210.026 322.079 211.124 321.542 212.441C320.467 215.073 318.91 218.587 316.979 222.105C315.05 225.618 312.736 229.16 310.143 231.83C307.56 234.49 304.624 236.362 301.457 236.362C295.278 236.362 289.655 231.697 283.918 224.367C278.747 217.76 273.376 208.841 267.335 198.811L267.335 198.811C266.649 197.672 265.954 196.518 265.25 195.351C258.418 184.036 248.249 177.952 239.763 174.696C235.522 173.068 231.708 172.15 228.957 171.639C227.581 171.384 226.472 171.23 225.709 171.141C225.518 171.118 225.349 171.1 225.203 171.085C226.594 170.896 227.994 170.743 229.404 170.624C232.184 171.153 235.962 172.08 240.15 173.688C248.778 176.999 259.18 183.207 266.174 194.793C266.877 195.957 267.57 197.108 268.254 198.244L268.255 198.245L268.255 198.246C274.306 208.293 279.641 217.15 284.768 223.702C290.497 231.021 295.834 235.282 301.457 235.282C304.191 235.282 306.862 233.659 309.368 231.078C311.865 228.507 314.125 225.06 316.032 221.586C317.937 218.115 319.477 214.641 320.542 212.033C321.074 210.729 321.487 209.643 321.766 208.884C321.906 208.504 322.012 208.206 322.083 208.004C322.111 207.926 322.133 207.861 322.15 207.813L319.517 186.946C319.797 186.743 320.075 186.536 320.351 186.322C320.404 186.281 320.458 186.24 320.511 186.199Z" fill="#FFB6B7" style="mix-blend-mode:overlay"/>
</g>
</g>
<path fill-rule="evenodd" clip-rule="evenodd" d="M239.47 170.387C238.469 170.349 237.463 170.33 236.452 170.33L236.267 170.331C236.267 170.331 236.267 170.331 236.267 170.331L236.325 171.025L236.324 171.025L236.325 171.025L236.325 171.025L236.328 171.025L236.343 171.027L236.403 171.033C236.457 171.038 236.537 171.047 236.644 171.059C236.856 171.084 237.171 171.123 237.576 171.18C238.386 171.294 239.555 171.482 240.987 171.774C243.852 172.359 247.76 173.361 251.939 175.03C260.307 178.373 269.675 184.358 273.979 194.939C278.379 205.755 283.464 214.226 288.313 220.004C290.737 222.892 293.113 225.119 295.325 226.627C297.316 227.986 299.213 228.787 300.917 228.93V228.952H301.457H301.997V228.93C303.701 228.787 305.597 227.986 307.589 226.627C309.801 225.119 312.176 222.892 314.6 220.004C319.45 214.226 324.535 205.755 328.934 194.939C333.239 184.358 342.606 178.373 350.975 175.03C355.153 173.361 359.062 172.359 361.927 171.774C363.359 171.482 364.528 171.294 365.338 171.18C365.743 171.123 366.057 171.084 366.27 171.059C366.376 171.047 366.457 171.038 366.511 171.033L366.571 171.027L366.585 171.025L366.589 171.025L366.589 171.025L366.589 171.025L366.647 170.33C365.546 170.332 364.45 170.356 363.361 170.402C362.86 170.49 362.308 170.594 361.711 170.716C358.801 171.31 354.827 172.328 350.575 174.027C342.083 177.419 332.398 183.559 327.934 194.532C323.566 205.269 318.535 213.636 313.773 219.309C311.392 222.146 309.088 224.297 306.98 225.735C305.106 227.013 303.422 227.704 301.997 227.845L301.997 192.791C301.637 192.796 301.277 192.794 300.917 192.786V227.845C299.491 227.704 297.808 227.013 295.934 225.735C293.826 224.297 291.522 222.146 289.141 219.309C284.379 213.636 279.347 205.269 274.98 194.532C270.516 183.559 260.831 177.419 252.339 174.027C248.087 172.328 244.113 171.31 241.203 170.716C240.573 170.587 239.993 170.479 239.47 170.387Z" fill="url(#paint6_linear_878_101325)"/>
<defs>
<filter id="filter0_d_878_101325" x="0" y="0" width="594" height="594" filterUnits="userSpaceOnUse" color-interpolation-filters="sRGB">
<feFlood flood-opacity="0" result="BackgroundImageFix"/>
<feColorMatrix in="SourceAlpha" type="matrix" values="0 0 0 0 0 0 0 0 0 0 0 0 0 0 0 0 0 0 127 0" result="hardAlpha"/>
<feOffset dy="8"/>
<feGaussianBlur stdDeviation="12"/>
<feColorMatrix type="matrix" values="0 0 0 0 0 0 0 0 0 0 0 0 0 0 0 0 0 0 0.08 0"/>
<feBlend mode="normal" in2="BackgroundImageFix" result="effect1_dropShadow_878_101325"/>
<feBlend mode="normal" in="SourceGraphic" in2="effect1_dropShadow_878_101325" result="shape"/>
</filter>
<filter id="filter1_f_878_101325" x="167.332" y="107.075" width="413.389" height="390.213" filterUnits="userSpaceOnUse" color-interpolation-filters="sRGB">
<feFlood flood-opacity="0" result="BackgroundImageFix"/>
<feBlend mode="normal" in="SourceGraphic" in2="BackgroundImageFix" result="shape"/>
<feGaussianBlur stdDeviation="36.6968" result="effect1_foregroundBlur_878_101325"/>
</filter>
<filter id="filter2_f_878_101325" x="157.79" y="131.801" width="386.576" height="363.921" filterUnits="userSpaceOnUse" color-interpolation-filters="sRGB">
<feFlood flood-opacity="0" result="BackgroundImageFix"/>
<feBlend mode="normal" in="SourceGraphic" in2="BackgroundImageFix" result="shape"/>
<feGaussianBlur stdDeviation="29.3574" result="effect1_foregroundBlur_878_101325"/>
</filter>
<filter id="filter3_f_878_101325" x="162.672" y="140.973" width="325.345" height="320.882" filterUnits="userSpaceOnUse" color-interpolation-filters="sRGB">
<feFlood flood-opacity="0" result="BackgroundImageFix"/>
<feBlend mode="normal" in="SourceGraphic" in2="BackgroundImageFix" result="shape"/>
<feGaussianBlur stdDeviation="14.6787" result="effect1_foregroundBlur_878_101325"/>
</filter>
<filter id="filter4_f_878_101325" x="27.6373" y="59.2217" width="359.809" height="459.62" filterUnits="userSpaceOnUse" color-interpolation-filters="sRGB">
<feFlood flood-opacity="0" result="BackgroundImageFix"/>
<feBlend mode="normal" in="SourceGraphic" in2="BackgroundImageFix" result="shape"/>
<feGaussianBlur stdDeviation="49.9077" result="effect1_foregroundBlur_878_101325"/>
</filter>
<filter id="filter5_f_878_101325" x="146.636" y="68.6002" width="458.693" height="530.108" filterUnits="userSpaceOnUse" color-interpolation-filters="sRGB">
<feFlood flood-opacity="0" result="BackgroundImageFix"/>
<feBlend mode="normal" in="SourceGraphic" in2="BackgroundImageFix" result="shape"/>
<feGaussianBlur stdDeviation="54.3113" result="effect1_foregroundBlur_878_101325"/>
</filter>
<filter id="filter6_f_878_101325" x="216.439" y="152.185" width="310.655" height="353.845" filterUnits="userSpaceOnUse" color-interpolation-filters="sRGB">
<feFlood flood-opacity="0" result="BackgroundImageFix"/>
<feBlend mode="normal" in="SourceGraphic" in2="BackgroundImageFix" result="shape"/>
<feGaussianBlur stdDeviation="29.3574" result="effect1_foregroundBlur_878_101325"/>
</filter>
<filter id="filter7_f_878_101325" x="184.103" y="129.524" width="180.251" height="147.938" filterUnits="userSpaceOnUse" color-interpolation-filters="sRGB">
<feFlood flood-opacity="0" result="BackgroundImageFix"/>
<feBlend mode="normal" in="SourceGraphic" in2="BackgroundImageFix" result="shape"/>
<feGaussianBlur stdDeviation="20.5502" result="effect1_foregroundBlur_878_101325"/>
</filter>
<linearGradient id="paint0_linear_878_101325" x1="-56.8481" y1="283.065" x2="312.206" y2="688.827" gradientUnits="userSpaceOnUse">
<stop stop-color="#FFE5E6"/>
<stop offset="1" stop-color="white"/>
</linearGradient>
<linearGradient id="paint1_linear_878_101325" x1="295.745" y1="172.239" x2="238.469" y2="394.982" gradientUnits="userSpaceOnUse">
<stop stop-color="#A90718" stop-opacity="0.257374"/>
<stop offset="1" stop-color="#A90718"/>
</linearGradient>
<linearGradient id="paint2_linear_878_101325" x1="249.642" y1="191.854" x2="247.939" y2="421.78" gradientUnits="userSpaceOnUse">
<stop stop-color="#A90718" stop-opacity="0.257374"/>
<stop offset="1" stop-color="#A90718"/>
</linearGradient>
<linearGradient id="paint3_linear_878_101325" x1="210.171" y1="199.761" x2="248.412" y2="426.469" gradientUnits="userSpaceOnUse">
<stop stop-color="#A90718" stop-opacity="0.257374"/>
<stop offset="1" stop-color="#A90718"/>
</linearGradient>
<radialGradient id="paint4_radial_878_101325" cx="0" cy="0" r="1" gradientUnits="userSpaceOnUse" gradientTransform="translate(165.924 170.33) rotate(46.1122) scale(260.011 263.026)">
<stop stop-color="#FFB6B7"/>
<stop offset="1" stop-color="#FF7B80"/>
</radialGradient>
<radialGradient id="paint5_radial_878_101325" cx="0" cy="0" r="1" gradientUnits="userSpaceOnUse" gradientTransform="translate(165.924 170.33) rotate(46.1122) scale(260.011 263.026)">
<stop stop-color="#FFB6B7"/>
<stop offset="1" stop-color="#FF7B80"/>
</radialGradient>
<linearGradient id="paint6_linear_878_101325" x1="375.091" y1="136.816" x2="137.804" y2="136.816" gradientUnits="userSpaceOnUse">
<stop stop-color="#FFB6B7"/>
<stop offset="1" stop-color="#FF7B80"/>
</linearGradient>
</defs>
</svg>
